<mxfile host="app.diagrams.net" modified="2021-12-24T06:24:18.243Z" agent="5.0 (X11; Linux x86_64) AppleWebKit/537.36 (KHTML, like Gecko) Chrome/91.0.4472.114 Safari/537.36" etag="wu_cHFkMXn3yx7Zy4pIC" version="16.0.3" type="github">
  <diagram id="C5RBs43oDa-KdzZeNtuy" name="Page-1">
    <mxGraphModel dx="1422" dy="833" grid="1" gridSize="10" guides="1" tooltips="1" connect="1" arrows="1" fold="1" page="1" pageScale="1" pageWidth="827" pageHeight="1169" math="0" shadow="0">
      <root>
        <mxCell id="WIyWlLk6GJQsqaUBKTNV-0" />
        <mxCell id="WIyWlLk6GJQsqaUBKTNV-1" parent="WIyWlLk6GJQsqaUBKTNV-0" />
        <mxCell id="WIyWlLk6GJQsqaUBKTNV-2" value="" style="rounded=0;html=1;jettySize=auto;orthogonalLoop=1;fontSize=11;endArrow=classicThin;endFill=1;endSize=8;strokeWidth=1;shadow=0;labelBackgroundColor=none;edgeStyle=orthogonalEdgeStyle;" parent="WIyWlLk6GJQsqaUBKTNV-1" source="WIyWlLk6GJQsqaUBKTNV-3" edge="1">
          <mxGeometry relative="1" as="geometry">
            <mxPoint x="220" y="170" as="targetPoint" />
          </mxGeometry>
        </mxCell>
        <mxCell id="N8-vEUdO3CjUo5sqRtrX-18" value="" style="edgeStyle=orthogonalEdgeStyle;rounded=0;orthogonalLoop=1;jettySize=auto;html=1;" edge="1" parent="WIyWlLk6GJQsqaUBKTNV-1" source="WIyWlLk6GJQsqaUBKTNV-3">
          <mxGeometry relative="1" as="geometry">
            <mxPoint x="611" y="230" as="targetPoint" />
            <Array as="points">
              <mxPoint x="530" y="100" />
              <mxPoint x="530" y="230" />
              <mxPoint x="611" y="230" />
            </Array>
          </mxGeometry>
        </mxCell>
        <mxCell id="WIyWlLk6GJQsqaUBKTNV-3" value="d_0 (all data)" style="rounded=1;whiteSpace=wrap;html=1;fontSize=12;glass=0;strokeWidth=1;shadow=0;" parent="WIyWlLk6GJQsqaUBKTNV-1" vertex="1">
          <mxGeometry x="160" y="80" width="120" height="40" as="geometry" />
        </mxCell>
        <mxCell id="N8-vEUdO3CjUo5sqRtrX-3" value="" style="edgeStyle=orthogonalEdgeStyle;rounded=0;orthogonalLoop=1;jettySize=auto;html=1;" edge="1" parent="WIyWlLk6GJQsqaUBKTNV-1" source="WIyWlLk6GJQsqaUBKTNV-7" target="N8-vEUdO3CjUo5sqRtrX-2">
          <mxGeometry relative="1" as="geometry" />
        </mxCell>
        <mxCell id="WIyWlLk6GJQsqaUBKTNV-7" value="M0 = pipeline.fit(d0)" style="rounded=1;whiteSpace=wrap;html=1;fontSize=12;glass=0;strokeWidth=1;shadow=0;" parent="WIyWlLk6GJQsqaUBKTNV-1" vertex="1">
          <mxGeometry x="160" y="170" width="120" height="40" as="geometry" />
        </mxCell>
        <mxCell id="N8-vEUdO3CjUo5sqRtrX-1" value="" style="edgeStyle=orthogonalEdgeStyle;rounded=0;orthogonalLoop=1;jettySize=auto;html=1;" edge="1" parent="WIyWlLk6GJQsqaUBKTNV-1" source="N8-vEUdO3CjUo5sqRtrX-0">
          <mxGeometry relative="1" as="geometry">
            <mxPoint x="220" y="145" as="targetPoint" />
          </mxGeometry>
        </mxCell>
        <mxCell id="N8-vEUdO3CjUo5sqRtrX-9" value="" style="edgeStyle=orthogonalEdgeStyle;rounded=0;orthogonalLoop=1;jettySize=auto;html=1;" edge="1" parent="WIyWlLk6GJQsqaUBKTNV-1" source="N8-vEUdO3CjUo5sqRtrX-0">
          <mxGeometry relative="1" as="geometry">
            <mxPoint x="611" y="145" as="targetPoint" />
          </mxGeometry>
        </mxCell>
        <mxCell id="N8-vEUdO3CjUo5sqRtrX-0" value="pipeline&amp;nbsp;&lt;br&gt;Pipeline([scaler, kMean])" style="text;html=1;strokeColor=default;fillColor=none;align=center;verticalAlign=middle;whiteSpace=wrap;rounded=0;" vertex="1" parent="WIyWlLk6GJQsqaUBKTNV-1">
          <mxGeometry x="310" y="130" width="200" height="30" as="geometry" />
        </mxCell>
        <mxCell id="N8-vEUdO3CjUo5sqRtrX-2" value="label_00 = M0.predict(d0)" style="whiteSpace=wrap;html=1;rounded=1;glass=0;strokeWidth=1;shadow=0;" vertex="1" parent="WIyWlLk6GJQsqaUBKTNV-1">
          <mxGeometry x="160" y="250" width="120" height="60" as="geometry" />
        </mxCell>
        <mxCell id="N8-vEUdO3CjUo5sqRtrX-4" value="" style="rounded=0;html=1;jettySize=auto;orthogonalLoop=1;fontSize=11;endArrow=classicThin;endFill=1;endSize=8;strokeWidth=1;shadow=0;labelBackgroundColor=none;edgeStyle=orthogonalEdgeStyle;" edge="1" parent="WIyWlLk6GJQsqaUBKTNV-1" source="N8-vEUdO3CjUo5sqRtrX-5">
          <mxGeometry relative="1" as="geometry">
            <mxPoint x="611" y="169" as="targetPoint" />
          </mxGeometry>
        </mxCell>
        <mxCell id="N8-vEUdO3CjUo5sqRtrX-5" value="d_1&amp;nbsp;&lt;br&gt;d_0[ recency &amp;gt;10d ]" style="rounded=1;whiteSpace=wrap;html=1;fontSize=12;glass=0;strokeWidth=1;shadow=0;" vertex="1" parent="WIyWlLk6GJQsqaUBKTNV-1">
          <mxGeometry x="551" y="79" width="120" height="40" as="geometry" />
        </mxCell>
        <mxCell id="N8-vEUdO3CjUo5sqRtrX-6" value="" style="edgeStyle=orthogonalEdgeStyle;rounded=0;orthogonalLoop=1;jettySize=auto;html=1;" edge="1" parent="WIyWlLk6GJQsqaUBKTNV-1" source="N8-vEUdO3CjUo5sqRtrX-7" target="N8-vEUdO3CjUo5sqRtrX-8">
          <mxGeometry relative="1" as="geometry" />
        </mxCell>
        <mxCell id="N8-vEUdO3CjUo5sqRtrX-7" value="M1 = pipeline.fit(d1)" style="rounded=1;whiteSpace=wrap;html=1;fontSize=12;glass=0;strokeWidth=1;shadow=0;" vertex="1" parent="WIyWlLk6GJQsqaUBKTNV-1">
          <mxGeometry x="551" y="169" width="120" height="40" as="geometry" />
        </mxCell>
        <mxCell id="N8-vEUdO3CjUo5sqRtrX-8" value="label_01 = M1.predict(d0)" style="whiteSpace=wrap;html=1;rounded=1;glass=0;strokeWidth=1;shadow=0;" vertex="1" parent="WIyWlLk6GJQsqaUBKTNV-1">
          <mxGeometry x="551" y="249" width="120" height="60" as="geometry" />
        </mxCell>
        <mxCell id="N8-vEUdO3CjUo5sqRtrX-20" value="" style="edgeStyle=orthogonalEdgeStyle;rounded=0;orthogonalLoop=1;jettySize=auto;html=1;endArrow=classicThin;endFill=1;" edge="1" parent="WIyWlLk6GJQsqaUBKTNV-1" source="N8-vEUdO3CjUo5sqRtrX-12" target="N8-vEUdO3CjUo5sqRtrX-19">
          <mxGeometry relative="1" as="geometry">
            <Array as="points">
              <mxPoint x="219" y="390" />
            </Array>
          </mxGeometry>
        </mxCell>
        <mxCell id="N8-vEUdO3CjUo5sqRtrX-12" value="" style="rounded=0;whiteSpace=wrap;html=1;strokeColor=default;fillColor=none;dashed=1;" vertex="1" parent="WIyWlLk6GJQsqaUBKTNV-1">
          <mxGeometry x="139" y="57" width="160" height="293" as="geometry" />
        </mxCell>
        <mxCell id="N8-vEUdO3CjUo5sqRtrX-13" value="" style="rounded=0;whiteSpace=wrap;html=1;strokeColor=default;fillColor=none;dashed=1;" vertex="1" parent="WIyWlLk6GJQsqaUBKTNV-1">
          <mxGeometry x="523" y="56" width="160" height="294" as="geometry" />
        </mxCell>
        <mxCell id="N8-vEUdO3CjUo5sqRtrX-14" value="True_label" style="text;html=1;strokeColor=none;fillColor=none;align=center;verticalAlign=middle;whiteSpace=wrap;rounded=0;dashed=1;" vertex="1" parent="WIyWlLk6GJQsqaUBKTNV-1">
          <mxGeometry x="140" y="320" width="60" height="30" as="geometry" />
        </mxCell>
        <mxCell id="N8-vEUdO3CjUo5sqRtrX-15" value="Predicted_label" style="text;html=1;strokeColor=none;fillColor=none;align=center;verticalAlign=middle;whiteSpace=wrap;rounded=0;dashed=1;" vertex="1" parent="WIyWlLk6GJQsqaUBKTNV-1">
          <mxGeometry x="542" y="321" width="60" height="30" as="geometry" />
        </mxCell>
        <mxCell id="N8-vEUdO3CjUo5sqRtrX-21" value="" style="edgeStyle=orthogonalEdgeStyle;rounded=0;orthogonalLoop=1;jettySize=auto;html=1;endArrow=none;endFill=0;startArrow=classicThin;startFill=1;" edge="1" parent="WIyWlLk6GJQsqaUBKTNV-1">
          <mxGeometry relative="1" as="geometry">
            <mxPoint x="470" y="387" as="sourcePoint" />
            <mxPoint x="600" y="353" as="targetPoint" />
            <Array as="points">
              <mxPoint x="600" y="387" />
              <mxPoint x="600" y="353" />
            </Array>
          </mxGeometry>
        </mxCell>
        <mxCell id="N8-vEUdO3CjUo5sqRtrX-19" value="ARI" style="whiteSpace=wrap;html=1;fillColor=#f8cecc;rounded=0;strokeColor=#b85450;" vertex="1" parent="WIyWlLk6GJQsqaUBKTNV-1">
          <mxGeometry x="350" y="370" width="120" height="30" as="geometry" />
        </mxCell>
      </root>
    </mxGraphModel>
  </diagram>
</mxfile>
